<?xml version="1.0" encoding="UTF-8" standalone="no"?>
<!DOCTYPE svg PUBLIC "-//W3C//DTD SVG 1.1//EN"
 "http://www.w3.org/Graphics/SVG/1.1/DTD/svg11.dtd">
<!-- Generated by graphviz version 12.2.1 (20241206.2353)
 -->
<!-- Title: Apps&#45;and&#45;Schemas Pages: 1 -->
<svg width="1340pt" height="727pt"
 viewBox="0.00 0.00 1340.25 727.00" xmlns="http://www.w3.org/2000/svg" xmlns:xlink="http://www.w3.org/1999/xlink">
<g id="graph0" class="graph" transform="scale(1 1) rotate(0) translate(4 723)">
<title>Apps&#45;and&#45;Schemas</title>
<polygon fill="white" stroke="none" points="-4,4 -4,-723 1336.25,-723 1336.25,4 -4,4"/>
<g id="clust1" class="cluster">
<title>cluster_hubdb</title>
<polygon fill="none" stroke="gray" points="1168.5,-409 1168.5,-711 1324.25,-711 1324.25,-409 1168.5,-409"/>
<text text-anchor="middle" x="1246.38" y="-695.6" font-family="Arial" font-size="12.00">Hub&#45;App DB Schemas</text>
</g>
<g id="clust3" class="cluster">
<title>cluster_apps</title>
<polygon fill="none" stroke="gray" points="0,-250 0,-684 216.25,-684 216.25,-250 0,-250"/>
<text text-anchor="middle" x="108.12" y="-668.6" font-family="Arial" font-size="12.00">ユーザーアプリ群 (各部門)</text>
</g>
<g id="clust4" class="cluster">
<title>cluster_apps_db</title>
<polygon fill="none" stroke="gray" points="812.25,-8 812.25,-520 961.75,-520 961.75,-8 812.25,-8"/>
<text text-anchor="middle" x="887" y="-504.6" font-family="Arial" font-size="12.00">User&#45;APPs DB Schemas</text>
</g>
<!-- HubApp -->
<g id="node1" class="node">
<title>HubApp</title>
<polygon fill="#eeffee" stroke="black" points="945.5,-564 827.5,-564 827.5,-528 945.5,-528 945.5,-564"/>
<text text-anchor="middle" x="886.5" y="-549.05" font-family="Arial" font-size="11.00">HubApp</text>
<text text-anchor="middle" x="886.5" y="-535.55" font-family="Arial" font-size="11.00">(共通ロジック)</text>
</g>
<!-- core -->
<g id="node2" class="node">
<title>core</title>
<polygon fill="white" stroke="black" points="1316.25,-681 1176.5,-681 1176.5,-645 1316.25,-645 1316.25,-681"/>
<text text-anchor="middle" x="1246.38" y="-666.05" font-family="Arial" font-size="11.00">core schema</text>
<text text-anchor="middle" x="1246.38" y="-652.55" font-family="Arial" font-size="11.00">(認証,ロール,共通)</text>
</g>
<!-- HubApp&#45;&gt;core -->
<g id="edge1" class="edge">
<title>HubApp&#45;&gt;core</title>
<path fill="none" stroke="#00aa00" stroke-width="1.2" d="M945.68,-554.2C1032.51,-554.2 1184.25,-554.2 1184.25,-554.2 1184.25,-554.2 1184.25,-632.73 1184.25,-632.73"/>
<polygon fill="#00aa00" stroke="#00aa00" stroke-width="1.2" points="1180.75,-632.73 1184.25,-642.73 1187.75,-632.73 1180.75,-632.73"/>
<text text-anchor="middle" x="1065.12" y="-656.7" font-family="Arial" font-size="9.00">共通I/O</text>
<polyline fill="none" stroke="black" points="1086.5,-654 1043.75,-654 1097.53,-554.2"/>
</g>
<!-- ai -->
<g id="node3" class="node">
<title>ai</title>
<polygon fill="white" stroke="black" points="1286.25,-609.25 1206.5,-609.25 1206.5,-560.75 1286.25,-560.75 1286.25,-609.25"/>
<text text-anchor="middle" x="1246.38" y="-594.8" font-family="Arial" font-size="11.00">ai schema</text>
<text text-anchor="middle" x="1246.38" y="-581.3" font-family="Arial" font-size="11.00">(AI, RAG,</text>
<text text-anchor="middle" x="1246.38" y="-567.8" font-family="Arial" font-size="11.00">Embeddings)</text>
</g>
<!-- HubApp&#45;&gt;ai -->
<g id="edge2" class="edge">
<title>HubApp&#45;&gt;ai</title>
<path fill="none" stroke="#00aa00" stroke-width="1.2" d="M945.98,-547.65C1051.21,-547.65 1259.25,-547.65 1259.25,-547.65 1259.25,-547.65 1259.25,-548.91 1259.25,-548.91"/>
<polygon fill="#00aa00" stroke="#00aa00" stroke-width="1.2" points="1255.75,-548.48 1259.25,-558.48 1262.75,-548.48 1255.75,-548.48"/>
</g>
<!-- logs -->
<g id="node4" class="node">
<title>logs</title>
<polygon fill="white" stroke="black" points="1291.12,-525 1201.62,-525 1201.62,-489 1291.12,-489 1291.12,-525"/>
<text text-anchor="middle" x="1246.38" y="-510.05" font-family="Arial" font-size="11.00">logs schema</text>
<text text-anchor="middle" x="1246.38" y="-496.55" font-family="Arial" font-size="11.00">(監査/ログ)</text>
</g>
<!-- HubApp&#45;&gt;logs -->
<g id="edge3" class="edge">
<title>HubApp&#45;&gt;logs</title>
<path fill="none" stroke="#00aa00" stroke-width="1.2" d="M945.71,-541.1C1044.75,-541.1 1233.25,-541.1 1233.25,-541.1 1233.25,-541.1 1233.25,-537.06 1233.25,-537.06"/>
<polygon fill="#00aa00" stroke="#00aa00" stroke-width="1.2" points="1236.75,-537.06 1233.25,-527.06 1229.75,-537.06 1236.75,-537.06"/>
</g>
<!-- other_commons -->
<g id="node5" class="node">
<title>other_commons</title>
<polygon fill="white" stroke="black" points="1299.75,-453 1193,-453 1193,-417 1299.75,-417 1299.75,-453"/>
<text text-anchor="middle" x="1246.38" y="-438.05" font-family="Arial" font-size="11.00">(other</text>
<text text-anchor="middle" x="1246.38" y="-424.55" font-family="Arial" font-size="11.00">common schemas)</text>
</g>
<!-- HubApp&#45;&gt;other_commons -->
<g id="edge4" class="edge">
<title>HubApp&#45;&gt;other_commons</title>
<path fill="none" stroke="#00aa00" stroke-width="1.2" d="M945.68,-534.55C1035.84,-534.55 1197.25,-534.55 1197.25,-534.55 1197.25,-534.55 1197.25,-465.08 1197.25,-465.08"/>
<polygon fill="#00aa00" stroke="#00aa00" stroke-width="1.2" points="1200.75,-465.08 1197.25,-455.08 1193.75,-465.08 1200.75,-465.08"/>
</g>
<!-- hrApp -->
<g id="node6" class="node">
<title>hrApp</title>
<polygon fill="#edf6ff" stroke="black" points="143.75,-654 71.5,-654 71.5,-618 143.75,-618 143.75,-654"/>
<text text-anchor="middle" x="107.62" y="-639.05" font-family="Arial" font-size="11.00">user&#45;app&#45;hr</text>
<text text-anchor="middle" x="107.62" y="-625.55" font-family="Arial" font-size="11.00">(人事)</text>
</g>
<!-- hrApp&#45;&gt;HubApp -->
<g id="edge5" class="edge">
<title>hrApp&#45;&gt;HubApp</title>
<path fill="none" stroke="#7f7f7f" stroke-width="1.2" stroke-dasharray="5,2" d="M144.14,-636C298.07,-636 886.25,-636 886.25,-636 886.25,-636 886.25,-576.03 886.25,-576.03"/>
<polygon fill="#7f7f7f" stroke="#7f7f7f" stroke-width="1.2" points="889.75,-576.03 886.25,-566.03 882.75,-576.03 889.75,-576.03"/>
<text text-anchor="middle" x="514.25" y="-683.15" font-family="Arial" font-size="8.00">AI呼出(分析)/認証等</text>
<polyline fill="none" stroke-width="0.2" stroke="black" points="619.25,-681 409.25,-681 514.37,-636"/>
</g>
<!-- hrSchema -->
<g id="node12" class="node">
<title>hrSchema</title>
<polygon fill="white" stroke="black" points="935.75,-489.25 837.25,-489.25 837.25,-440.75 935.75,-440.75 935.75,-489.25"/>
<text text-anchor="middle" x="886.5" y="-474.8" font-family="Arial" font-size="11.00">hr schema</text>
<text text-anchor="middle" x="886.5" y="-461.3" font-family="Arial" font-size="11.00">(求人,研修,</text>
<text text-anchor="middle" x="886.5" y="-447.8" font-family="Arial" font-size="11.00">人事データ)</text>
</g>
<!-- hrApp&#45;&gt;hrSchema -->
<g id="edge11" class="edge">
<title>hrApp&#45;&gt;hrSchema</title>
<path fill="none" stroke="#3b7ddd" stroke-width="1.2" stroke-dasharray="5,2" d="M144.05,-627C219.57,-627 386.25,-627 386.25,-627 386.25,-627 386.25,-484.17 386.25,-484.17 386.25,-484.17 825.35,-484.17 825.35,-484.17"/>
<polygon fill="#3b7ddd" stroke="#3b7ddd" stroke-width="1.2" points="825.35,-487.67 835.35,-484.17 825.35,-480.67 825.35,-487.67"/>
</g>
<!-- productionApp -->
<g id="node7" class="node">
<title>productionApp</title>
<polygon fill="#edf6ff" stroke="black" points="164,-582 51.25,-582 51.25,-546 164,-546 164,-582"/>
<text text-anchor="middle" x="107.62" y="-567.05" font-family="Arial" font-size="11.00">user&#45;app&#45;production</text>
<text text-anchor="middle" x="107.62" y="-553.55" font-family="Arial" font-size="11.00">(生産管理)</text>
</g>
<!-- productionApp&#45;&gt;HubApp -->
<g id="edge6" class="edge">
<title>productionApp&#45;&gt;HubApp</title>
<path fill="none" stroke="#7f7f7f" stroke-width="1.2" stroke-dasharray="5,2" d="M164.27,-558C164.27,-558 815.34,-558 815.34,-558"/>
<polygon fill="#7f7f7f" stroke="#7f7f7f" stroke-width="1.2" points="815.34,-561.5 825.34,-558 815.34,-554.5 815.34,-561.5"/>
<text text-anchor="middle" x="514.25" y="-589.15" font-family="Arial" font-size="8.00">AI呼出(RAG(手順))/認証等</text>
<polyline fill="none" stroke-width="0.2"  stroke="black" points="630.88,-587 397.62,-587 514.1,-558"/>
</g>
<!-- productionSchema -->
<g id="node13" class="node">
<title>productionSchema</title>
<polygon fill="white" stroke="black" points="939.88,-404.25 833.12,-404.25 833.12,-355.75 939.88,-355.75 939.88,-404.25"/>
<text text-anchor="middle" x="886.5" y="-389.8" font-family="Arial" font-size="11.00">production schema</text>
<text text-anchor="middle" x="886.5" y="-376.3" font-family="Arial" font-size="11.00">(生産計画,</text>
<text text-anchor="middle" x="886.5" y="-362.8" font-family="Arial" font-size="11.00">在庫管理)</text>
</g>
<!-- productionApp&#45;&gt;productionSchema -->
<g id="edge12" class="edge">
<title>productionApp&#45;&gt;productionSchema</title>
<path fill="none" stroke="#3b7ddd" stroke-width="1.2" stroke-dasharray="5,2" d="M164.24,-552C333.69,-552 825.25,-552 825.25,-552 825.25,-552 825.25,-384 825.25,-384 825.25,-384 826,-384 826,-384"/>
<polygon fill="#3b7ddd" stroke="#3b7ddd" stroke-width="1.2" points="820.94,-387.5 830.94,-384 820.94,-380.5 820.94,-387.5"/>
</g>
<!-- accountingApp -->
<g id="node8" class="node">
<title>accountingApp</title>
<polygon fill="#edf6ff" stroke="black" points="164.75,-510 50.5,-510 50.5,-474 164.75,-474 164.75,-510"/>
<text text-anchor="middle" x="107.62" y="-495.05" font-family="Arial" font-size="11.00">user&#45;app&#45;accounting</text>
<text text-anchor="middle" x="107.62" y="-481.55" font-family="Arial" font-size="11.00">(経理)</text>
</g>
<!-- accountingApp&#45;&gt;HubApp -->
<g id="edge7" class="edge">
<title>accountingApp&#45;&gt;HubApp</title>
<path fill="none" stroke="#7f7f7f" stroke-width="1.2" stroke-dasharray="5,2" d="M107.25,-510.48C107.25,-524.87 107.25,-542.4 107.25,-542.4 107.25,-542.4 815.47,-542.4 815.47,-542.4"/>
<polygon fill="#7f7f7f" stroke="#7f7f7f" stroke-width="1.2" points="815.47,-545.9 825.47,-542.4 815.47,-538.9 815.47,-545.9"/>
<text text-anchor="middle" x="514.25" y="-538.15" font-family="Arial" font-size="8.00">AI呼出(仕訳提案)/認証等</text>
<polyline fill="none" stroke-width="0.2"  stroke="black" points="647,-536 381.5,-536 514.1,-542.4"/>
</g>
<!-- accountingSchema -->
<g id="node14" class="node">
<title>accountingSchema</title>
<polygon fill="white" stroke="black" points="940.62,-319.25 832.38,-319.25 832.38,-270.75 940.62,-270.75 940.62,-319.25"/>
<text text-anchor="middle" x="886.5" y="-304.8" font-family="Arial" font-size="11.00">accounting schema</text>
<text text-anchor="middle" x="886.5" y="-291.3" font-family="Arial" font-size="11.00">(仕訳,決算,</text>
<text text-anchor="middle" x="886.5" y="-277.8" font-family="Arial" font-size="11.00">請求書)</text>
</g>
<!-- accountingApp&#45;&gt;accountingSchema -->
<g id="edge13" class="edge">
<title>accountingApp&#45;&gt;accountingSchema</title>
<path fill="none" stroke="#3b7ddd" stroke-width="1.2" stroke-dasharray="5,2" d="M164.98,-479.08C334.79,-479.08 823.25,-479.08 823.25,-479.08 823.25,-479.08 823.25,-306.62 823.25,-306.62 823.25,-306.62 824.13,-306.62 824.13,-306.62"/>
<polygon fill="#3b7ddd" stroke="#3b7ddd" stroke-width="1.2" points="820.23,-310.13 830.23,-306.63 820.23,-303.13 820.23,-310.13"/>
</g>
<!-- internalSeApp -->
<g id="node9" class="node">
<title>internalSeApp</title>
<polygon fill="#edf6ff" stroke="black" points="164,-438 51.25,-438 51.25,-402 164,-402 164,-438"/>
<text text-anchor="middle" x="107.62" y="-423.05" font-family="Arial" font-size="11.00">user&#45;app&#45;internal&#45;se</text>
<text text-anchor="middle" x="107.62" y="-409.55" font-family="Arial" font-size="11.00">(社内SE)</text>
</g>
<!-- internalSeApp&#45;&gt;HubApp -->
<g id="edge8" class="edge">
<title>internalSeApp&#45;&gt;HubApp</title>
<path fill="none" stroke="#7f7f7f" stroke-width="1.2" stroke-dasharray="5,2" d="M164.26,-427.5C271.65,-427.5 494.25,-427.5 494.25,-427.5 494.25,-427.5 494.25,-538.8 494.25,-538.8 494.25,-538.8 815.54,-538.8 815.54,-538.8"/>
<polygon fill="#7f7f7f" stroke="#7f7f7f" stroke-width="1.2" points="815.54,-542.3 825.54,-538.8 815.54,-535.3 815.54,-542.3"/>
<text text-anchor="middle" x="514.25" y="-487.15" font-family="Arial" font-size="8.00">AI呼出(設計・コードレビュー)/認証等</text>
<polyline fill="none" stroke-width="0.2" stroke="black" points="730.25,-485 298.25,-485 494.25,-489.98"/>
</g>
<!-- internalSeSchema -->
<g id="node15" class="node">
<title>internalSeSchema</title>
<polygon fill="white" stroke="black" points="953,-234.25 820,-234.25 820,-185.75 953,-185.75 953,-234.25"/>
<text text-anchor="middle" x="886.5" y="-219.8" font-family="Arial" font-size="11.00">internal_se schema</text>
<text text-anchor="middle" x="886.5" y="-206.3" font-family="Arial" font-size="11.00">(コードレビュー,</text>
<text text-anchor="middle" x="886.5" y="-192.8" font-family="Arial" font-size="11.00">インシデント)</text>
</g>
<!-- internalSeApp&#45;&gt;internalSeSchema -->
<g id="edge14" class="edge">
<title>internalSeApp&#45;&gt;internalSeSchema</title>
<path fill="none" stroke="#3b7ddd" stroke-width="1.2" stroke-dasharray="5,2" d="M164.3,-410.62C333.32,-410.62 822.25,-410.62 822.25,-410.62 822.25,-410.62 822.25,-246.42 822.25,-246.42"/>
<polygon fill="#3b7ddd" stroke="#3b7ddd" stroke-width="1.2" points="825.75,-246.42 822.25,-236.42 818.75,-246.42 825.75,-246.42"/>
</g>
<!-- infraApp -->
<g id="node10" class="node">
<title>infraApp</title>
<polygon fill="#edf6ff" stroke="black" points="150.88,-366 64.38,-366 64.38,-330 150.88,-330 150.88,-366"/>
<text text-anchor="middle" x="107.62" y="-351.05" font-family="Arial" font-size="11.00">user&#45;app&#45;infra</text>
<text text-anchor="middle" x="107.62" y="-337.55" font-family="Arial" font-size="11.00">(情報基盤)</text>
</g>
<!-- infraApp&#45;&gt;HubApp -->
<g id="edge9" class="edge">
<title>infraApp&#45;&gt;HubApp</title>
<path fill="none" stroke="#7f7f7f" stroke-width="1.2" stroke-dasharray="5,2" d="M151.17,-360.88C272.12,-360.88 603.25,-360.88 603.25,-360.88 603.25,-360.88 603.25,-535.2 603.25,-535.2 603.25,-535.2 815.31,-535.2 815.31,-535.2"/>
<polygon fill="#7f7f7f" stroke="#7f7f7f" stroke-width="1.2" points="815.31,-538.7 825.31,-535.2 815.31,-531.7 815.31,-538.7"/>
<text text-anchor="middle" x="514.25" y="-436.15" font-family="Arial" font-size="8.00">AI呼出(文書検索)/認証等</text>
<polyline fill="none" stroke-width="0.2"  stroke="black" points="647,-434 381.5,-434 549.63,-360.88"/>
</g>
<!-- infraSchema -->
<g id="node16" class="node">
<title>infraSchema</title>
<polygon fill="white" stroke="black" points="945.12,-149.25 827.88,-149.25 827.88,-100.75 945.12,-100.75 945.12,-149.25"/>
<text text-anchor="middle" x="886.5" y="-134.8" font-family="Arial" font-size="11.00">infra schema</text>
<text text-anchor="middle" x="886.5" y="-121.3" font-family="Arial" font-size="11.00">(ドキュメント,</text>
<text text-anchor="middle" x="886.5" y="-107.8" font-family="Arial" font-size="11.00">ガバナンス)</text>
</g>
<!-- infraApp&#45;&gt;infraSchema -->
<g id="edge15" class="edge">
<title>infraApp&#45;&gt;infraSchema</title>
<path fill="none" stroke="#3b7ddd" stroke-width="1.2" stroke-dasharray="5,2" d="M151.31,-342.88C201.57,-342.88 277.25,-342.88 277.25,-342.88 277.25,-342.88 277.25,-125 277.25,-125 277.25,-125 815.71,-125 815.71,-125"/>
<polygon fill="#3b7ddd" stroke="#3b7ddd" stroke-width="1.2" points="815.71,-128.5 825.71,-125 815.71,-121.5 815.71,-128.5"/>
<text text-anchor="middle" x="514.25" y="-167.7" font-family="Arial" font-size="9.00">業務処理I/O</text>
<polyline fill="none" stroke="black" points="551.38,-165 477.12,-165 277.25,-159.03"/>
</g>
<!-- procurementApp -->
<g id="node11" class="node">
<title>procurementApp</title>
<polygon fill="#edf6ff" stroke="black" points="169.25,-294 46,-294 46,-258 169.25,-258 169.25,-294"/>
<text text-anchor="middle" x="107.62" y="-279.05" font-family="Arial" font-size="11.00">user&#45;app&#45;procurement</text>
<text text-anchor="middle" x="107.62" y="-265.55" font-family="Arial" font-size="11.00">(調達購買)</text>
</g>
<!-- procurementApp&#45;&gt;HubApp -->
<g id="edge10" class="edge">
<title>procurementApp&#45;&gt;HubApp</title>
<path fill="none" stroke="#7f7f7f" stroke-width="1.2" stroke-dasharray="5,2" d="M169.67,-282.38C323.7,-282.38 711.25,-282.38 711.25,-282.38 711.25,-282.38 711.25,-531.6 711.25,-531.6 711.25,-531.6 815.35,-531.6 815.35,-531.6"/>
<polygon fill="#7f7f7f" stroke="#7f7f7f" stroke-width="1.2" points="815.35,-535.1 825.35,-531.6 815.35,-528.1 815.35,-535.1"/>
<text text-anchor="middle" x="514.25" y="-385.15" font-family="Arial" font-size="8.00">AI呼出(見積,契約RAG,監視)/認証等</text>
<polyline fill="none" stroke-width="0.2"  stroke="black" points="685.62,-383 342.88,-383 514.08,-282.38"/>
</g>
<!-- procurementSchema -->
<g id="node17" class="node">
<title>procurementSchema</title>
<polygon fill="white" stroke="black" points="945.12,-64.25 827.88,-64.25 827.88,-15.75 945.12,-15.75 945.12,-64.25"/>
<text text-anchor="middle" x="886.5" y="-49.8" font-family="Arial" font-size="11.00">procurement schema</text>
<text text-anchor="middle" x="886.5" y="-36.3" font-family="Arial" font-size="11.00">(発注,契約,</text>
<text text-anchor="middle" x="886.5" y="-22.8" font-family="Arial" font-size="11.00">見積等)</text>
</g>
<!-- procurementApp&#45;&gt;procurementSchema -->
<g id="edge16" class="edge">
<title>procurementApp&#45;&gt;procurementSchema</title>
<path fill="none" stroke="#3b7ddd" stroke-width="1.2" stroke-dasharray="5,2" d="M107.25,-257.87C107.25,-202.61 107.25,-40 107.25,-40 107.25,-40 815.79,-40 815.79,-40"/>
<polygon fill="#3b7ddd" stroke="#3b7ddd" stroke-width="1.2" points="815.79,-43.5 825.79,-40 815.79,-36.5 815.79,-43.5"/>
</g>
</g>
</svg>
